<svg xmlns="http://www.w3.org/2000/svg" viewBox="0 0 700 500">
  <defs>
    <linearGradient id="bg" x1="0%" y1="0%" x2="0%" y2="100%">
      <stop offset="0%" style="stop-color:#e6f2ff"/>
      <stop offset="100%" style="stop-color:#cce5ff"/>
    </linearGradient>
  </defs>
  <rect width="100%" height="100%" fill="url(#bg)"/>

  <!-- Title -->
  <text x="350.0" y="28" text-anchor="middle" font-family="Arial, sans-serif" font-size="18" font-weight="bold" fill="#1a365d">NYC Census Tracts 2009</text>
  <text x="350.0" y="48" text-anchor="middle" font-family="Arial, sans-serif" font-size="13" fill="#4a5568">Merged Shapefile: All 5 Boroughs Combined</text>

  <!-- Tract outlines (sampled) -->
  <g fill="#4299e1" fill-opacity="0.4" stroke="#2b6cb0" stroke-width="0.4">
    <path d="M412,77L414,74L417,74L416,76L415,77L414,78L413,78L412,78L412,77Z"/>
    <path d="M379,106L377,105L378,103L379,102L382,99L380,103L380,104L379,106Z"/>
    <path d="M405,122L404,125L403,125L400,125L398,124L401,123L404,122L405,122Z"/>
    <path d="M367,118L364,121L361,120L362,118L363,117L366,118L367,118Z"/>
    <path d="M376,118L373,121L371,123L370,120L372,116L374,117L377,114L377,115L376,118Z"/>
    <path d="M359,113L358,115L355,114L356,112L359,109L361,109L361,110L360,111L359,113Z"/>
    <path d="M397,107L395,109L393,110L392,108L393,106L396,105L397,107L397,107Z"/>
    <path d="M397,84L394,83L395,82L396,80L397,77L398,80L398,82L397,84L397,84Z"/>
    <path d="M432,62L431,65L429,65L426,63L427,62L430,61L432,62L432,62Z"/>
    <path d="M372,144L370,143L368,142L370,140L371,139L373,141L373,143L372,144Z"/>
    <path d="M372,136L371,138L367,137L367,136L368,135L370,134L371,132L372,131L375,131L373,133L373,134L372,136Z"/>
    <path d="M419,132L418,134L416,133L417,132L419,132Z"/>
    <path d="M449,149L445,150L435,148L438,139L438,126L438,126L437,125L437,125L438,125L439,124L439,125L439,125L439,125L439,125L443,125L444,125L444,125L443,125L443,125L444,126L452,128L453,131L455,135L456,136L453,137L451,138L453,141L452,149L449,149Z"/>
    <path d="M451,110L449,110L447,111L444,111L444,110L446,108L448,107L450,105L452,107L452,110L451,110Z"/>
    <path d="M421,105L418,106L419,104L419,100L420,98L420,100L421,102L422,105L421,105Z"/>
    <path d="M450,93L449,93L443,90L441,89L439,88L438,87L437,86L440,85L442,84L445,88L447,88L449,91L450,93Z"/>
    <path d="M424,84L421,84L419,84L420,82L422,81L424,81L424,84Z"/>
    <path d="M288,259L288,260L286,262L285,261L286,259L287,257L288,256L289,256L288,258L288,259Z"/>
    <path d="M342,317L340,320L338,317L339,315L341,315L342,317Z"/>
    <path d="M298,262L296,264L292,262L293,261L293,260L295,260L298,262L298,262Z"/>
    <path d="M334,305L332,306L331,306L330,304L328,303L330,302L332,302L334,305L334,305Z"/>
    <path d="M349,264L349,262L354,261L355,263L349,264L349,264Z"/>
    <path d="M289,302L287,303L283,301L284,300L289,302L289,302Z"/>
    <path d="M302,349L302,351L302,352L303,354L301,354L299,352L299,350L302,349L302,349Z"/>
    <path d="M337,277L345,278L347,280L339,279L337,277L337,277Z"/>
    <path d="M267,323L268,322L269,320L270,323L269,325L267,325L266,324L267,323Z"/>
    <path d="M355,281L355,282L353,282L350,283L347,281L353,281L355,281Z"/>
    <path d="M314,269L312,269L311,267L311,266L312,265L314,264L315,266L314,268L314,269Z"/>
    <path d="M366,261L360,261L360,259L360,257L359,256L361,257L362,258L364,259L365,260L366,261L366,261Z"/>
    <path d="M279,331L278,329L282,329L282,331L279,331L279,331Z"/>
    <path d="M369,260L367,258L364,257L362,256L362,254L365,255L367,256L369,258L369,260Z"/>
    <path d="M323,268L318,267L318,265L321,266L324,267L323,268Z"/>
    <path d="M320,343L317,343L317,339L319,338L320,343L320,343Z"/>
    <path d="M326,293L325,295L323,295L322,294L320,294L321,291L325,290L326,292L326,293Z"/>
    <path d="M309,326L308,327L305,327L301,324L304,324L308,326L309,326Z"/>
    <path d="M319,312L318,310L318,307L318,305L320,306L321,311L319,312L319,312Z"/>
    <path d="M293,328L292,330L290,331L287,331L287,330L287,328L290,328L293,328L293,328Z"/>
    <path d="M312,240L314,239L316,241L317,241L318,242L319,244L320,245L322,247L323,249L320,250L317,250L314,250L312,250L310,249L308,249L306,247L306,245L307,244L307,242L312,240L312,240L312,240Z"/>
    <path d="M347,255L342,256L342,254L347,253L347,255L347,255Z"/>
    <path d="M357,293L357,297L354,297L355,293L357,293L357,293Z"/>
    <path d="M329,354L327,355L325,354L325,352L326,351L328,351L329,354L329,354Z"/>
    <path d="M371,281L368,281L366,277L367,276L369,275L371,281L371,281Z"/>
    <path d="M345,358L346,358L345,356L348,356L350,356L352,356L353,357L353,358L352,360L343,359L344,358L345,358L345,358Z"/>
    <path d="M376,306L373,307L369,304L368,302L370,301L370,301L373,303L376,306Z"/>
    <path d="M318,336L317,339L315,339L313,337L315,334L318,334L318,336Z"/>
    <path d="M383,311L384,314L380,313L380,311L383,311L383,311Z"/>
    <path d="M321,334L318,334L318,329L321,329L322,331L321,334Z"/>
    <path d="M402,285L402,287L399,286L399,284L402,285L402,285Z"/>
    <path d="M305,318L306,318L305,320L302,318L298,316L299,315L303,317L305,318Z"/>
    <path d="M389,273L390,271L393,271L394,275L391,275L389,274L389,273Z"/>
    <path d="M334,330L332,328L330,327L332,325L335,325L335,330L334,330Z"/>
    <path d="M418,280L415,280L413,279L415,277L418,278L418,280Z"/>
    <path d="M334,166L335,167L334,169L330,168L332,166L334,166L334,166Z"/>
    <path d="M346,160L344,162L341,162L340,160L341,158L346,160Z"/>
    <path d="M343,120L342,122L337,120L336,118L340,119L343,120Z"/>
    <path d="M335,139L335,138L336,138L336,137L337,138L336,139L335,139L335,139Z"/>
    <path d="M298,207L297,209L294,207L295,205L296,204L299,206L298,207L298,207Z"/>
    <path d="M301,233L299,232L299,230L301,229L302,231L302,232L301,233Z"/>
    <path d="M306,222L305,224L304,225L299,224L300,222L302,221L306,222L306,222Z"/>
    <path d="M302,213L306,215L305,216L302,217L300,215L302,213L302,213Z"/>
    <path d="M316,190L317,192L316,194L313,194L312,192L314,191L316,190L316,190Z"/>
    <path d="M297,217L293,216L292,215L295,214L297,215L297,215L297,216L297,217Z"/>
    <path d="M337,153L337,154L336,155L333,153L334,152L335,151L338,152L337,153Z"/>
    <path d="M328,140L327,142L323,140L323,139L324,139L325,137L325,136L325,136L325,136L325,136L326,136L328,138L328,140L328,140Z"/>
    <path d="M315,189L312,188L313,186L316,188L315,189Z"/>
    <path d="M303,176L304,174L309,176L308,178L304,177L303,176Z"/>
    <path d="M425,276L423,275L421,275L420,272L422,273L424,274L425,274L425,276Z"/>
    <path d="M461,184L458,184L455,183L457,180L461,180L462,182L461,184Z"/>
    <path d="M356,183L352,182L352,180L356,181L356,183L356,183Z"/>
    <path d="M468,213L468,211L465,211L464,210L466,210L469,211L472,211L474,211L475,211L474,214L475,217L474,220L471,221L469,221L468,217L468,213L468,213Z"/>
    <path d="M473,229L471,230L470,228L472,228L474,227L476,226L478,227L477,229L474,229L473,229Z"/>
    <path d="M364,171L362,173L360,174L360,176L357,175L356,174L359,172L363,169L365,170L364,171L364,171Z"/>
    <path d="M527,287L527,288L524,288L521,287L519,287L516,286L515,284L518,282L520,283L522,284L523,285L526,286L527,287Z"/>
    <path d="M514,194L516,196L517,198L514,198L511,197L511,195L509,193L510,192L512,191L514,192L514,194L514,194Z"/>
    <path d="M441,256L438,256L437,254L437,252L439,252L440,252L441,255L441,256L441,256Z"/>
    <path d="M440,229L439,231L438,233L436,232L434,231L435,229L435,229L437,228L439,228L440,229Z"/>
    <path d="M375,182L378,183L379,185L378,186L376,185L374,184L371,183L374,182L375,182Z"/>
    <path d="M457,260L459,266L462,271L460,270L458,266L455,261L457,260L457,260Z"/>
    <path d="M505,349L506,349L506,352L508,358L489,355L489,351L495,350L498,350L502,350L504,350L505,349Z"/>
    <path d="M401,202L399,202L398,198L398,194L400,196L400,200L401,202Z"/>
    <path d="M396,202L394,201L394,197L396,195L395,198L396,202Z"/>
    <path d="M444,189L445,191L446,193L446,195L447,198L444,198L442,196L442,191L443,188L445,188L444,188L444,189Z"/>
    <path d="M523,267L521,269L520,270L520,270L519,270L518,270L515,272L513,272L513,270L514,269L514,268L515,265L516,264L519,265L521,263L523,262L524,262L524,264L523,266L523,267Z"/>
    <path d="M488,345L488,346L487,348L486,347L486,346L490,342L490,339L500,331L504,336L506,345L504,347L503,347L504,349L502,350L498,350L495,350L489,350L489,347L488,345L488,345Z"/>
    <path d="M506,239L509,240L509,241L510,243L510,245L509,246L507,246L504,246L503,244L501,243L506,239Z"/>
    <path d="M417,207L414,208L414,206L413,205L417,204L417,205L418,206L417,207Z"/>
    <path d="M514,242L514,240L517,239L518,242L519,244L516,245L515,243L514,242Z"/>
    <path d="M517,288L519,289L523,291L525,291L527,292L532,293L532,291L532,289L530,288L532,286L535,287L539,288L541,290L545,291L545,293L547,293L548,293L548,291L549,292L549,292L549,293L548,294L545,295L544,295L541,296L539,296L537,297L536,297L534,297L533,297L534,298L534,300L533,302L533,302L533,303L534,304L534,306L534,306L535,309L534,310L533,309L534,308L533,307L531,307L529,311L529,307L530,307L532,305L529,300L512,291L516,288L517,288Z"/>
    <path d="M535,244L532,245L531,243L531,240L532,238L533,238L534,241L535,243L535,244L535,244Z"/>
    <path d="M491,274L488,273L486,273L484,273L482,271L484,270L487,269L487,270L491,274Z"/>
    <path d="M539,229L538,230L536,231L533,228L536,227L538,226L539,227L539,229L539,229Z"/>
    <path d="M366,218L371,219L376,221L376,221L375,222L371,225L369,226L371,228L372,229L369,230L364,231L361,231L360,230L357,224L356,222L353,221L353,220L356,220L359,220L360,221L362,222L364,223L365,220L366,218L366,218Z"/>
    <path d="M547,256L548,258L548,260L546,259L544,258L543,256L545,256L547,256L547,256Z"/>
    <path d="M377,201L378,197L380,196L381,198L378,200L378,202L375,204L377,201L377,201Z"/>
    <path d="M413,242L411,245L409,243L408,241L410,241L412,240L413,242L413,242Z"/>
    <path d="M342,196L341,198L340,198L339,197L338,196L336,195L340,193L342,194L342,196L342,196Z"/>
    <path d="M142,362L140,362L138,364L135,365L131,368L129,369L125,371L125,365L126,359L127,354L127,354L127,354L130,355L132,356L133,357L135,358L136,359L137,359L138,360L140,361L142,362Z"/>
    <path d="M209,301L212,302L212,303L210,303L210,305L209,304L204,305L205,303L206,302L209,301L209,301Z"/>
    <path d="M147,380L149,382L148,384L148,386L148,388L148,389L147,389L146,389L145,389L145,389L144,390L144,389L143,388L142,385L141,383L140,381L139,380L139,379L139,376L139,376L140,376L141,375L143,377L145,379L147,380L147,380Z"/>
    <path d="M170,317L168,317L164,318L162,317L163,315L164,313L166,313L169,313L170,315L172,316L170,317L170,317Z"/>
    <path d="M102,409L104,408L105,409L107,412L109,415L112,419L115,417L117,419L117,419L131,450L87,428L85,424L84,421L83,418L83,416L85,415L87,415L87,415L87,414L90,414L93,414L95,413L95,413L96,413L97,412L98,411L102,409L102,409Z"/>
  </g>

  <!-- Stats box -->
  <rect x="10" y="410" width="180" height="80" rx="5" fill="white" fill-opacity="0.9" stroke="#cbd5e0"/>
  <text x="20" y="432" font-family="Arial" font-size="12" font-weight="bold" fill="#2d3748">Statistics:</text>
  <text x="20" y="448" font-family="Arial" font-size="11" fill="#4a5568">• Total Tracts: 2,217</text>
  <text x="20" y="464" font-family="Arial" font-size="11" fill="#4a5568">• Boroughs: 5</text>
  <text x="20" y="480" font-family="Arial" font-size="11" fill="#4a5568">• Shape Type: Polygon</text>

  <!-- Borough labels -->
  <text x="411" y="100" text-anchor="middle" font-family="Arial" font-size="12" font-weight="bold" fill="#c53030" stroke="white" stroke-width="2.5" paint-order="stroke">Bronx</text>
  <text x="316" y="171" text-anchor="middle" font-family="Arial" font-size="12" font-weight="bold" fill="#2f855a" stroke="white" stroke-width="2.5" paint-order="stroke">Manhattan</text>
  <text x="488" y="229" text-anchor="middle" font-family="Arial" font-size="12" font-weight="bold" fill="#805ad5" stroke="white" stroke-width="2.5" paint-order="stroke">Queens</text>
  <text x="335" y="295" text-anchor="middle" font-family="Arial" font-size="12" font-weight="bold" fill="#3182ce" stroke="white" stroke-width="2.5" paint-order="stroke">Brooklyn</text>
  <text x="173" y="372" text-anchor="middle" font-family="Arial" font-size="12" font-weight="bold" fill="#dd6b20" stroke="white" stroke-width="2.5" paint-order="stroke">Staten Island</text>
</svg>